# xmcd
#
# Track frame offsets:
#	150
#	14687
#	38313
#	56825
#	73672
#	93938
#	109024
#	130497
#	144155
#	162540
#
# Disc length: 2416 seconds
#
# Revision: 0
# Processed by: cddbd v1.5.2PL0 Copyright (c) Steve Scherf et al.
# Submitted via: audiograbber 1.83.01
#
DISCID=86096e0a
DTITLE=Rosenplänter, Martin Mit Den Entsprechenden Konsequenzen - Auf Anderer L
DTITLE=eute Kosten
DYEAR=2008
DGENRE=
TTITLE0=Pärchen Im Park
TTITLE1=Café Zur Hübschen Kellnerin
TTITLE2=Süchtig Nach Dir
TTITLE3=Wenn Literaturwissenschaft (Nur Annähernd So Attraktiv Wäre Wie Die Dam
TTITLE3=e Zu Meiner Linken)
TTITLE4=Mecklenburg-Vorpommern Blues
TTITLE5=Postalisch
TTITLE6=Sieben
TTITLE7=Du Kannst Mich Mal
TTITLE8=Elisa
TTITLE9=Die Weiße Stadt
EXTD=http://www.martinrosenplaenter.de/
EXTT0=
EXTT1=
EXTT2=
EXTT3=
EXTT4=
EXTT5=
EXTT6=
EXTT7=
EXTT8=
EXTT9=
PLAYORDER=
